<?xml version="1.0" encoding="UTF-8"?>
<svg width="1440px" height="596px" viewBox="0 0 1440 596" version="1.1" xmlns="http://www.w3.org/2000/svg" xmlns:xlink="http://www.w3.org/1999/xlink">
    <!-- Generator: Sketch 47.1 (45422) - http://www.bohemiancoding.com/sketch -->
    <title>Group 4</title>
    <desc>Created with Sketch.</desc>
    <defs></defs>
    <g id="Page-1" stroke="none" stroke-width="1" fill="none" fill-rule="evenodd">
        <g id="Desktop-HD">
            <g id="Group-4" transform="translate(0.000000, -3.000000)">
                <polygon id="Path-4" fill-opacity="0.5" fill="#FFD166" points="0 393 135.029831 316.287279 255.413921 381.654227 399.551451 248.079987 533.862665 282.281173 665.361896 248.079987 796.14251 381.654227 995.316784 235.977309 1443 328.062226 1443 2 0 2"></polygon>
                <polygon id="Path-2" fill-opacity="0.5" fill="#EF476F" points="4 3 129.303123 442 746.578393 95.715749 913.14672 396.158256 1022 3"></polygon>
                <polygon id="Path-3" fill-opacity="0.5" fill="#00A5CF" points="1442 464 1247.91834 464 1215.62351 418.833279 916.15195 0 804.670196 344.201138 594.84332 206.145872 2 316.715021 2 0 1442 0"></polygon>
                <polyline id="Path" fill-opacity="0.47" fill="#00A676" points="0 4 0 307.535181 178.653655 129.043081 260.214052 599 718.909692 4 1006.24696 254.586719 1132.26714 96.1011783 1442 416.312234 1442 4"></polyline>
            </g>
        </g>
    </g>
</svg>