<?xml version="1.0" encoding="UTF-8"?>
<svg width="126px" height="127px" viewBox="0 0 126 127" version="1.1" xmlns="http://www.w3.org/2000/svg" xmlns:xlink="http://www.w3.org/1999/xlink">
    <!-- Generator: Sketch 47.1 (45422) - http://www.bohemiancoding.com/sketch -->
    <title>mycon</title>
    <desc>Created with Sketch.</desc>
    <defs></defs>
    <g id="Page-1" stroke="none" stroke-width="1" fill="none" fill-rule="evenodd">
        <g id="Desktop-HD-Copy" transform="translate(-47.000000, -37.000000)">
            <g id="mycon" transform="translate(52.000000, 43.000000)">
                <path d="M58,-2.6610327 L69.6047193,58 L46.3952807,58 L58,-2.6610327 Z M58,117.661033 L46.3952807,57 L69.6047193,57 L58,117.661033 Z" id="Combined-Shape" stroke-opacity="0.9" stroke="#47FF0A"></path>
                <path d="M58,-2.6610327 L69.6047193,58 L46.3952807,58 L58,-2.6610327 Z M58,117.661033 L46.3952807,57 L69.6047193,57 L58,117.661033 Z" id="Combined-Shape" stroke-opacity="0.9" stroke="#FF0AC2" transform="translate(58.000000, 57.500000) rotate(45.000000) translate(-58.000000, -57.500000) "></path>
                <path d="M58,-2.6610327 L69.6047193,58 L46.3952807,58 L58,-2.6610327 Z M58,117.661033 L46.3952807,57 L69.6047193,57 L58,117.661033 Z" id="Combined-Shape" stroke-opacity="0.9" stroke="#0AC2FF" transform="translate(58.000000, 57.500000) rotate(90.000000) translate(-58.000000, -57.500000) "></path>
                <path d="M58,-2.6610327 L69.6047193,58 L46.3952807,58 L58,-2.6610327 Z M58,117.661033 L46.3952807,57 L69.6047193,57 L58,117.661033 Z" id="Combined-Shape" stroke-opacity="0.99" stroke="#C2FF0A" transform="translate(58.000000, 57.500000) rotate(135.000000) translate(-58.000000, -57.500000) "></path>
            </g>
        </g>
    </g>
</svg>