<?xml version="1.0" encoding="UTF-8"?>
<svg width="52px" height="52px" viewBox="0 0 52 52" version="1.1" xmlns="http://www.w3.org/2000/svg" xmlns:xlink="http://www.w3.org/1999/xlink">
    <!-- Generator: Sketch 47.1 (45422) - http://www.bohemiancoding.com/sketch -->
    <title>mycon</title>
    <desc>Created with Sketch.</desc>
    <defs></defs>
    <g id="Page-1" stroke="none" stroke-width="1" fill="none" fill-rule="evenodd" fill-opacity="0.5">
        <g id="Desktop-HD" transform="translate(-703.000000, -631.000000)">
            <g id="Group-2" transform="translate(608.000000, 631.000000)">
                <g id="mycon" transform="translate(95.000000, 0.000000)">
                    <path d="M26,0 L31,26 L21,26 L26,0 Z M26,52 L21,26 L31,26 L26,52 Z" id="Combined-Shape" fill="#00A676"></path>
                    <path d="M26,0 L31,26 L21,26 L26,0 Z M26,52 L21,26 L31,26 L26,52 Z" id="Combined-Shape" fill="#EF476F" transform="translate(26.000000, 26.000000) rotate(45.000000) translate(-26.000000, -26.000000) "></path>
                    <path d="M26,0 L31,26 L21,26 L26,0 Z M26,52 L21,26 L31,26 L26,52 Z" id="Combined-Shape" fill="#00A5CF" transform="translate(26.000000, 26.000000) rotate(90.000000) translate(-26.000000, -26.000000) "></path>
                    <path d="M26,0 L31,26 L21,26 L26,0 Z M26,52 L21,26 L31,26 L26,52 Z" id="Combined-Shape" fill="#FFD166" transform="translate(26.000000, 26.000000) rotate(135.000000) translate(-26.000000, -26.000000) "></path>
                </g>
            </g>
        </g>
    </g>
</svg>